# xmcd
#
# Track frame offsets:
#	150
#	26797
#	40578
#	56179
#	72957
#	98043
#	123311
#	148155
#	172459
#	189729
#	224517
#	239713
#	253623
#	272674
#	290950
#	311144
#	333213
#
# Disc length: 4644 seconds
# Revision: 1
# Processed by: cddbd v1.5.2PL0 Copyright (c) Steve Scherf et al.
# Submitted via: jack 3.1.1
#
DISCID=1e122211
DTITLE=Peter Green and The Original Fleetwood Mac - Alone With The Blues CD2
DYEAR=1900
DGENRE=Blues
TTITLE0=Peter Green - Big Boy Now
TTITLE1=Peter Green - Bandit
TTITLE2=Peter Green - What Am I Doing Here?
TTITLE3=Peter Green - Long Way From Home
TTITLE4=Peter Green - Baby, When The Sun Goes Down
TTITLE5=Peter Green - Give Me Back My Freedom
TTITLE6=Peter Green - Last Train To San Antone
TTITLE7=Peter Green - Lost My Love
TTITLE8=Peter Green - Whatcha Gonna Do?
TTITLE9=Peter Green - A Fool No More
TTITLE10=Brunning Sunflower Blues Band - Uranus
TTITLE11=Peter Green - Seven Stars
TTITLE12=Fleetwood Mac - Jumping At Shadows
TTITLE13=Fleetwood Mac - Showbiz Blues
TTITLE14=Peter Green - Tribal Dance
TTITLE15=Peter Green - Stranger Blues
TTITLE16=Fleetwood Mac - Lazy Poker Blues (live)
EXTD=
EXTT0=
EXTT1=
EXTT2=
EXTT3=
EXTT4=
EXTT5=
EXTT6=
EXTT7=
EXTT8=
EXTT9=
EXTT10=
EXTT11=
EXTT12=
EXTT13=
EXTT14=
EXTT15=
EXTT16=
PLAYORDER=
